<svg xmlns="http://www.w3.org/2000/svg" viewBox="0 0 1024 1024" role="img" aria-label="Apple Maps">
  <defs>
    <linearGradient id="am-bg" x1="0%" y1="0%" x2="100%" y2="100%">
      <stop offset="0%" stop-color="#5AC8FA"/>
      <stop offset="55%" stop-color="#0A84FF"/>
      <stop offset="100%" stop-color="#0066CC"/>
    </linearGradient>
  </defs>
  <rect width="1024" height="1024" rx="226" fill="url(#am-bg)"/>
  <path fill="#fff" fill-opacity="0.96" d="M512 248c-118 0-214 96-214 214 0 142 214 398 214 398s214-256 214-398c0-118-96-214-214-214z"/>
  <path fill="#34C759" d="M512 320c-80 0-145 65-145 145 0 95 145 267 145 267s145-172 145-267c0-80-65-145-145-145z" opacity="0.92"/>
  <path fill="#0A84FF" d="M512 384c-45 0-81 36-81 81 0 54 81 151 81 151s81-97 81-151c0-45-36-81-81-81z" opacity="0.45"/>
  <circle cx="512" cy="465" r="42" fill="#fff" fill-opacity="0.95"/>
</svg>
